<mxfile host="app.diagrams.net" modified="2020-12-04T06:30:54.725Z" agent="5.0 (Windows NT 6.1; Win64; x64) AppleWebKit/537.36 (KHTML, like Gecko) Chrome/87.0.4280.66 Safari/537.36" etag="D3UozdZn_h1qZutXfhHe" version="13.10.6" type="github">
  <diagram id="aUihdd68fqfxLUTkQLma" name="第 1 页">
    <mxGraphModel dx="1102" dy="582" grid="1" gridSize="10" guides="1" tooltips="1" connect="1" arrows="1" fold="1" page="1" pageScale="1" pageWidth="827" pageHeight="1169" math="0" shadow="0">
      <root>
        <mxCell id="0" />
        <mxCell id="1" parent="0" />
        <mxCell id="hP8N73eXKbdKDqS--rKs-1" value="0.100000001490116119384765625" style="rounded=1;whiteSpace=wrap;html=1;gradientColor=#ffd966;fillColor=#fff2cc;fontSize=16;strokeColor=none;" vertex="1" parent="1">
          <mxGeometry x="230" y="80" width="290" height="60" as="geometry" />
        </mxCell>
        <mxCell id="hP8N73eXKbdKDqS--rKs-2" value="0.20000000298023223876953125" style="rounded=1;whiteSpace=wrap;html=1;gradientColor=#ffd966;fillColor=#fff2cc;fontSize=16;strokeColor=none;" vertex="1" parent="1">
          <mxGeometry x="230" y="210" width="290" height="60" as="geometry" />
        </mxCell>
        <mxCell id="hP8N73eXKbdKDqS--rKs-3" value="" style="endArrow=none;dashed=1;html=1;dashPattern=1 3;strokeWidth=2;fontSize=16;" edge="1" parent="1">
          <mxGeometry width="50" height="50" relative="1" as="geometry">
            <mxPoint x="180" y="290" as="sourcePoint" />
            <mxPoint x="590" y="290" as="targetPoint" />
          </mxGeometry>
        </mxCell>
        <mxCell id="hP8N73eXKbdKDqS--rKs-4" value="&lt;font color=&quot;#ff0000&quot;&gt;0.300000004&lt;/font&gt;470348358154296875" style="rounded=1;whiteSpace=wrap;html=1;gradientColor=#7ea6e0;fillColor=#dae8fc;fontSize=16;strokeColor=none;" vertex="1" parent="1">
          <mxGeometry x="230" y="310" width="290" height="60" as="geometry" />
        </mxCell>
        <mxCell id="hP8N73eXKbdKDqS--rKs-12" value="" style="endArrow=none;html=1;fontSize=16;entryX=1;entryY=0.5;entryDx=0;entryDy=0;strokeWidth=2;gradientColor=#ea6b66;fillColor=#f8cecc;strokeColor=#b85450;" edge="1" parent="1">
          <mxGeometry width="50" height="50" relative="1" as="geometry">
            <mxPoint x="350" y="174.5" as="sourcePoint" />
            <mxPoint x="400" y="175" as="targetPoint" />
          </mxGeometry>
        </mxCell>
        <mxCell id="hP8N73eXKbdKDqS--rKs-13" value="" style="endArrow=none;html=1;fontSize=16;entryX=0.5;entryY=0;entryDx=0;entryDy=0;strokeWidth=2;gradientColor=#ea6b66;fillColor=#f8cecc;strokeColor=#b85450;" edge="1" parent="1">
          <mxGeometry width="50" height="50" relative="1" as="geometry">
            <mxPoint x="375" y="200" as="sourcePoint" />
            <mxPoint x="375" y="150" as="targetPoint" />
          </mxGeometry>
        </mxCell>
      </root>
    </mxGraphModel>
  </diagram>
</mxfile>
